<?xml version="1.0" encoding="iso-8859-1"?>
<!-- Generator: Adobe Illustrator 19.0.0, SVG Export Plug-In . SVG Version: 6.00 Build 0)  -->
<svg xmlns="http://www.w3.org/2000/svg" xmlns:xlink="http://www.w3.org/1999/xlink" version="1.1" id="Capa_1" x="0px" y="0px" viewBox="0 0 512 512" style="enable-background:new 0 0 512 512;" xml:space="preserve" width="512px" height="512px">
<g>
	<g>
		<path d="M480,117.333h-53.333v21.333H480c5.891,0,10.667,4.776,10.667,10.667v256c0,5.891-4.776,10.667-10.667,10.667H330.667    c-2.829,0.001-5.541,1.125-7.541,3.125l-24.459,24.459v-16.917c0-5.891-4.776-10.667-10.667-10.667H138.667    c-5.891,0-10.667-4.776-10.667-10.667v-32h-21.333v32c0,17.673,14.327,32,32,32h138.667v32c0,5.891,4.776,10.667,10.667,10.667    c2.829-0.001,5.541-1.125,7.541-3.125l39.541-39.541H480c17.673,0,32-14.327,32-32v-256C512,131.66,497.673,117.333,480,117.333z" fill="#fc8215"/>
	</g>
</g>
<g>
	<g>
		<path d="M373.333,32H32C14.327,32,0,46.327,0,64v256c0,17.673,14.327,32,32,32h149.333v32c0,5.891,4.776,10.667,10.667,10.667    c2.829-0.001,5.541-1.125,7.541-3.125L239.083,352h134.251c17.673,0,32-14.327,32-32V64C405.333,46.327,391.006,32,373.333,32z     M384,320c0,5.891-4.776,10.667-10.667,10.667H234.667c-2.829,0.001-5.541,1.125-7.541,3.125l-24.459,24.459v-16.917    c0-5.891-4.776-10.667-10.667-10.667H32c-5.891,0-10.667-4.776-10.667-10.667V64c0-5.891,4.776-10.667,10.667-10.667h341.333    C379.224,53.333,384,58.109,384,64V320z" fill="#fc8215"/>
	</g>
</g>
<g>
	<g>
		<rect x="53.333" y="117.333" width="117.333" height="21.333" fill="#fc8215"/>
	</g>
</g>
<g>
	<g>
		<rect x="53.333" y="181.333" width="298.667" height="21.333" fill="#fc8215"/>
	</g>
</g>
<g>
	<g>
		<rect x="53.333" y="245.333" width="298.667" height="21.333" fill="#fc8215"/>
	</g>
</g>
<g>
	<g>
		<rect x="330.667" y="117.333" width="21.333" height="21.333" fill="#fc8215"/>
	</g>
</g>
<g>
	<g>
		<rect x="288" y="117.333" width="21.333" height="21.333" fill="#fc8215"/>
	</g>
</g>
<g>
</g>
<g>
</g>
<g>
</g>
<g>
</g>
<g>
</g>
<g>
</g>
<g>
</g>
<g>
</g>
<g>
</g>
<g>
</g>
<g>
</g>
<g>
</g>
<g>
</g>
<g>
</g>
<g>
</g>
</svg>
