<?xml version="1.0"?>
<svg xmlns="http://www.w3.org/2000/svg" viewBox="0 -58 512 512" width="512px" height="512px"><path d="m177.152344 218.367188c-2.324219 0-4.660156-.808594-6.554688-2.453126-31.066406-27-69.859375-44.828124-112.1875-51.5625-5.457031-.867187-9.171875-5.992187-8.304687-11.449218.867187-5.453125 5.996093-9.171875 11.445312-8.304688 46.027344 7.324219 88.269531 26.765625 122.164063 56.222656 4.167968 3.621094 4.613281 9.9375.988281 14.105469-1.972656 2.273438-4.753906 3.441407-7.550781 3.441407zm0 0" fill="#FFFFFF"/><path d="m334.855469 218.359375c-2.792969 0-5.574219-1.167969-7.550781-3.441406-3.625-4.167969-3.183594-10.484375.988281-14.105469 25.683593-22.320312 55.707031-38.714844 89.246093-48.726562 5.289063-1.582032 10.859376 1.429687 12.441407 6.722656 1.578125 5.289062-1.429688 10.859375-6.722657 12.441406-30.789062 9.191406-58.328124 24.214844-81.847656 44.65625-1.890625 1.644531-4.226562 2.453125-6.554687 2.453125zm0 0" fill="#FFFFFF"/><path d="m452.019531 164.476562c-.648437 0-1.308593-.070312-1.960937-.199218-.628906-.128906-1.257813-.320313-1.867188-.570313-.601562-.25-1.179687-.558593-1.722656-.921875-.546875-.359375-1.058594-.777344-1.519531-1.238281-.460938-.460937-.878907-.96875-1.25-1.519531-.359375-.539063-.667969-1.128906-.917969-1.730469s-.441406-1.230469-.570312-1.871094c-.132813-.640625-.191407-1.296875-.191407-1.949219 0-.648437.0625-1.308593.191407-1.957031.128906-.632812.320312-1.261719.570312-1.871093.25-.601563.558594-1.179688.917969-1.722657.371093-.546875.789062-1.058593 1.25-1.519531.460937-.460938.972656-.878906 1.519531-1.25.542969-.359375 1.121094-.667969 1.722656-.917969.609375-.25 1.238282-.441406 1.867188-.570312 1.292968-.261719 2.621094-.261719 3.910156 0 .640625.128906 1.273438.320312 1.871094.570312.609375.25 1.191406.558594 1.730468.917969.550782.371094 1.058594.789062 1.519532 1.25.460937.460938.878906.972656 1.238281 1.519531.359375.542969.671875 1.121094.921875 1.722657.25.609374.4375 1.238281.570312 1.871093.128907.648438.199219 1.308594.199219 1.957031 0 .652344-.070312 1.3125-.199219 1.949219-.132812.640625-.320312 1.273438-.570312 1.871094-.25.601563-.5625 1.191406-.921875 1.730469-.359375.550781-.777344 1.058594-1.238281 1.519531-.460938.460937-.96875.878906-1.519532 1.238281-.539062.363282-1.121093.671875-1.730468.921875-.601563.25-1.230469.441407-1.871094.570313s-1.296875.199218-1.949219.199218zm0 0" fill="#FFFFFF"/><path d="m502 40.222656h-9.109375c-4.484375-28.984375-8.996094-34.882812-12.921875-38.027344-1.773438-1.421874-3.980469-2.195312-6.25-2.195312h-435.4375c-2.273438 0-4.476562.773438-6.25 2.195312-3.925781 3.144532-8.4375 9.042969-12.925781 38.027344h-9.105469c-5.523438 0-10 4.476563-10 10v57c0 5.523438 4.476562 10 10 10h1.695312c-1.914062 32.007813-2.929687 67.167969-1.558593 75.621094.015625.117188.035156.230469.054687.34375 2.335938 12.492188 5.640625 24.859375 9.828125 36.753906 24.375 69.367188 77.824219 124.054688 146.628907 150.035156 11.414062 4.324219 23.304687 7.835938 35.347656 10.4375.007812 0 .015625.003907.027344.003907 17.347656 3.742187 35.226562 5.636719 53.09375 5.636719h1.699218c17.914063 0 35.785156-1.894532 53.132813-5.628907.019531-.003906.035156-.007812.054687-.011719 12.042969-2.601562 23.9375-6.109374 35.335938-10.433593 68.816406-25.984375 122.265625-80.671875 146.640625-150.035157 4.1875-11.898437 7.492187-24.269531 9.828125-36.757812.019531-.121094.039062-.238281.058594-.355469 1.367187-8.480469.347656-43.617187-1.5625-75.609375h1.695312c5.523438 0 10-4.476562 10-10v-57c0-5.523437-4.476562-10-10-10zm-110.496094 57c-10.199218 0-18.5-8.296875-18.5-18.5 0-10.199218 8.300782-18.5 18.5-18.5h12.753906v37zm32.753906-37h67.742188v37h-67.742188zm48.378907-20h-81.132813c-21.230468 0-38.5 17.269532-38.5 38.5 0 6.703125 1.71875 13.007813 4.742188 18.5h-67.839844c14.25-10.46875 23.183594-19.539062 27.226562-27.625 5.503907-11.007812 7.140626-23.53125 4.605469-35.257812 0 0 0 0 0-.003906-1.125-5.199219-3-10.03125-5.523437-14.335938h151.84375c1.078125 3.019531 2.71875 8.941406 4.578125 20.222656zm-262.828125-1.660156c1.457031-6.734375 4.902344-12.246094 9.703125-15.519531 2.933593-1.996094 6.164062-3.015625 9.648437-3.042969h.335938c1.488281.011719 3.023437.207031 4.601562.578125 3.722656.875 5.621094 2.746094 11.054688 8.523437 1.128906 1.203126 2.34375 2.488282 3.671875 3.859376 1.882812 1.9375 4.472656 3.035156 7.175781 3.035156s5.292969-1.097656 7.175781-3.035156c1.332031-1.371094 2.539063-2.65625 3.671875-3.859376 5.4375-5.777343 7.332032-7.644531 11.058594-8.523437 1.582031-.375 3.121094-.566406 4.617188-.578125h.335937c3.480469.03125 6.703125 1.050781 9.628906 3.039062 4.800781 3.273438 8.246094 8.785157 9.703125 15.523438 1.578125 7.292969.53125 15.136719-2.949218 22.089844-5.5 11-31.621094 28.160156-43.238282 35.039062-11.621094-6.878906-37.742187-24.039062-43.246094-35.039062-3.476562-6.953125-4.523437-14.796875-2.949218-22.089844zm-165.867188-18.5625h151.84375c-2.523437 4.304688-4.398437 9.136719-5.523437 14.339844-2.535157 11.726562-.898438 24.246094 4.605469 35.257812 4.042968 8.085938 12.976562 17.15625 27.226562 27.628906h-67.839844c3.023438-5.496093 4.742188-11.800781 4.742188-18.503906 0-21.226562-17.269532-38.5-38.5-38.5h-81.136719c1.863281-11.28125 3.503906-17.203125 4.582031-20.222656zm-23.941406 77.222656v-37h67.742188v37zm87.742188-37h12.753906c10.199218 0 18.5 8.300782 18.5 18.5 0 10.203125-8.300782 18.5-18.5 18.5h-12.753906zm-68.855469 163.085938c-2.480469-7.046875-4.625-14.273438-6.410157-21.597656 42.226563 2.519531 81.574219 18.054687 111.871094 44.382812 33.496094 29.128906 51.941406 67.929688 51.941406 109.257812 0 4.339844-.207031 8.675782-.609374 12.972657-7.460938-1.984375-14.808594-4.34375-21.957032-7.054688-63.277344-23.890625-112.421875-74.175781-134.835937-137.960937zm434.226562.003906c-22.414062 63.78125-71.5625 114.066406-134.847656 137.960938-7.140625 2.707031-14.484375 5.066406-21.945313 7.050781-.40625-4.296875-.609374-8.632813-.609374-12.972657 0-41.328124 18.445312-80.128906 51.9375-109.253906 30.300781-26.332031 69.648437-41.867187 111.875-44.386718-1.785157 7.324218-3.929688 14.550781-6.410157 21.601562zm9.398438-41.773438c-48.195313 1.972657-93.339844 19.359376-127.984375 49.464844-37.925782 32.980469-58.816406 77.140625-58.816406 124.347656 0 5.785157.320312 11.566407.949218 17.285157-13.347656 2.320312-26.976562 3.476562-40.691406 3.417969-13.671875.0625-27.289062-1.097657-40.628906-3.414063.628906-5.71875.949218-11.503906.949218-17.289063 0-47.203124-20.890624-91.363281-58.816406-124.347656 0 0 0 0-.003906 0-34.640625-30.105468-79.785156-47.492187-127.976562-49.464844-.125-12.265624.527343-36.378906 2.234374-64.3125h448.546876c1.707031 27.9375 2.359374 52.054688 2.238281 64.3125zm0 0" fill="#FFFFFF"/></svg>
