<?xml version="1.0"?>
<svg xmlns="http://www.w3.org/2000/svg" height="512px" viewBox="0 0 368 368" width="512px"><path d="m312 0h-256c-30.878906 0-56 25.121094-56 56v16c0 4.414062 3.585938 8 8 8h56v208h-56c-4.414062 0-8 3.585938-8 8v16c0 30.878906 25.121094 56 56 56h256c30.871094 0 56-25.121094 56-56v-256c0-30.878906-25.128906-56-56-56zm-296 56c0-22.054688 17.945312-40 40-40h216.839844c-10.382813 10.167969-16.839844 24.34375-16.839844 40v8h-240zm40 296c-22.054688 0-40-17.945312-40-40v-8h240v8c0 15.65625 6.457031 29.832031 16.839844 40zm296-40c0 22.054688-17.945312 40-40 40s-40-17.945312-40-40v-16c0-4.414062-3.574219-8-8-8h-184v-208h184c4.425781 0 8-3.585938 8-8v-16c0-22.054688 17.945312-40 40-40s40 17.945312 40 40zm0 0" fill="#fc8215"/><path d="m296 176h-176c-4.414062 0-8 3.585938-8 8s3.585938 8 8 8h176c4.425781 0 8-3.585938 8-8s-3.574219-8-8-8zm0 0" fill="#fc8215"/><path d="m296 224h-176c-4.414062 0-8 3.585938-8 8s3.585938 8 8 8h176c4.425781 0 8-3.585938 8-8s-3.574219-8-8-8zm0 0" fill="#fc8215"/><path d="m296 128h-176c-4.414062 0-8 3.585938-8 8s3.585938 8 8 8h176c4.425781 0 8-3.585938 8-8s-3.574219-8-8-8zm0 0" fill="#fc8215"/></svg>
