<svg height="480pt" viewBox="-96 0 480 480" width="480pt" xmlns="http://www.w3.org/2000/svg"><path d="m288 24c0-13.253906-10.746094-24-24-24h-240c-13.253906 0-24 10.746094-24 24v168c.0195312 5.921875 2.246094 11.625 6.238281 16-3.992187 4.375-6.2187498 10.078125-6.238281 16v232c0 13.253906 10.746094 24 24 24h240c13.253906 0 24-10.746094 24-24v-232c-.019531-5.921875-2.246094-11.625-6.238281-16 3.992187-4.375 6.21875-10.078125 6.238281-16zm-272 0c0-4.417969 3.582031-8 8-8h240c4.417969 0 8 3.582031 8 8v168c0 4.417969-3.582031 8-8 8h-240c-4.417969 0-8-3.582031-8-8zm256 432c0 4.417969-3.582031 8-8 8h-240c-4.417969 0-8-3.582031-8-8v-232c0-4.417969 3.582031-8 8-8h240c4.417969 0 8 3.582031 8 8zm0 0"/><path d="m56 168h8v-16h-8c-4.417969 0-8-3.582031-8-8v-72c0-4.417969 3.582031-8 8-8h8v-16h-8c-13.253906 0-24 10.746094-24 24v72c0 13.253906 10.746094 24 24 24zm0 0"/><path d="m32 264v72c0 13.253906 10.746094 24 24 24h8v-16h-8c-4.417969 0-8-3.582031-8-8v-72c0-4.417969 3.582031-8 8-8h8v-16h-8c-13.253906 0-24 10.746094-24 24zm0 0"/><path d="m208 48h32v16h-32zm0 0"/><path d="m248 48h16v16h-16zm0 0"/><path d="m184 48h16v16h-16zm0 0"/><path d="m184 72h80v16h-80zm0 0"/><path d="m184 24h80v16h-80zm0 0"/><path d="m248 176h16v16h-16zm0 0"/><path d="m224 176h16v16h-16zm0 0"/><path d="m248 152h16v16h-16zm0 0"/><path d="m248 440h16v16h-16zm0 0"/><path d="m224 440h16v16h-16zm0 0"/><path d="m248 416h16v16h-16zm0 0"/></svg>