<?xml version="1.0" encoding="iso-8859-1"?>
<!-- Generator: Adobe Illustrator 19.0.0, SVG Export Plug-In . SVG Version: 6.00 Build 0)  -->
<svg xmlns="http://www.w3.org/2000/svg" xmlns:xlink="http://www.w3.org/1999/xlink" version="1.1" id="Capa_1" x="0px" y="0px" viewBox="0 0 512 512" style="enable-background:new 0 0 512 512;" xml:space="preserve" width="512px" height="512px">
<g>
	<g>
		<g>
			<path d="M458.667,74.349H378.88C343.167,6.602,259.297-19.367,191.55,16.346c-24.742,13.042-44.961,33.262-58.003,58.003H53.333     C23.878,74.349,0,98.227,0,127.682v256c0,17.673,14.327,32,32,32h160v35.627c-16.451,6.679-28.192,21.498-30.933,39.04h-22.4     v21.333h234.667v-21.333h-22.4c-2.741-17.542-14.483-32.361-30.933-39.04v-35.627h160c17.673,0,32-14.327,32-32v-256     C512,98.227,488.122,74.349,458.667,74.349z M160.049,70.887c21.96-31.25,57.757-49.856,95.951-49.871     c64.801,0.027,117.312,52.581,117.285,117.382c-0.016,38.195-18.621,73.991-49.871,95.951H188.587     C135.567,197.091,122.79,123.906,160.049,70.887z M328.96,490.349H183.04c3.499-13.578,16.33-22.614,30.293-21.333H256v-21.333     h-42.667v-32h85.333v53.333C312.63,467.735,325.461,476.771,328.96,490.349z M490.667,383.682     c0,5.891-4.776,10.667-10.667,10.667H32c-5.891,0-10.667-4.776-10.667-10.667v-53.333h469.333V383.682z M490.667,309.016H21.333     V127.682c0-17.673,14.327-32,32-32h70.827c-15.87,48.58-3.553,101.953,32,138.667H85.333v21.333h341.333v-21.333h-70.933     c35.553-36.713,47.87-90.087,32-138.667h70.933c17.673,0,32,14.327,32,32V309.016z" fill="#fc8215"/>
			<path d="M458.667,117.016h-32v21.333H448v21.333h21.333v-32C469.333,121.791,464.558,117.016,458.667,117.016z" fill="#fc8215"/>
			<path d="M85.333,117.016h-32c-5.891,0-10.667,4.776-10.667,10.667v32H64v-21.333h21.333V117.016z" fill="#fc8215"/>
			<rect x="234.667" y="351.682" width="42.667" height="21.333" fill="#fc8215"/>
			<path d="M234.667,181.016h10.667v21.333h21.333v-21.333h10.667c11.782,0,21.333-9.551,21.333-21.333v-21.333     c0-11.782-9.551-21.333-21.333-21.333h-42.667V95.682h42.667v10.667h21.333V95.682c0-11.782-9.551-21.333-21.333-21.333h-10.667     V53.016h-21.333v21.333h-10.667c-11.782,0-21.333,9.551-21.333,21.333v21.333c0,11.782,9.551,21.333,21.333,21.333h42.667v21.333     h-42.667v-10.667h-21.333v10.667C213.333,171.464,222.885,181.016,234.667,181.016z" fill="#fc8215"/>
		</g>
	</g>
</g>
<g>
</g>
<g>
</g>
<g>
</g>
<g>
</g>
<g>
</g>
<g>
</g>
<g>
</g>
<g>
</g>
<g>
</g>
<g>
</g>
<g>
</g>
<g>
</g>
<g>
</g>
<g>
</g>
<g>
</g>
</svg>
