<?xml version="1.0" encoding="iso-8859-1"?>
<!-- Generator: Adobe Illustrator 19.0.0, SVG Export Plug-In . SVG Version: 6.00 Build 0)  -->
<svg xmlns="http://www.w3.org/2000/svg" xmlns:xlink="http://www.w3.org/1999/xlink" version="1.1" id="Layer_1" x="0px" y="0px" viewBox="0 0 512 512" style="enable-background:new 0 0 512 512;" xml:space="preserve" width="512px" height="512px">
<g>
	<g>
		<path d="M495.304,0C484.905,0,25.829,0,16.696,0C7.475,0,0,7.475,0,16.696c0,7.116,0,465.659,0,478.609    C0,504.525,7.475,512,16.696,512c11.705,0,292.856,0,300.522,0c9.22,0,16.696-7.475,16.696-16.696V333.913h161.391    c9.22,0,16.696-7.475,16.696-16.696c0-7.761,0-289.109,0-300.522C512,7.475,504.525,0,495.304,0z M100.174,478.609H33.391V133.565    h66.783C100.174,143.607,100.174,473.936,100.174,478.609z M200.348,478.609h-66.783v-244.87h66.783    C200.348,237.364,200.348,474.095,200.348,478.609z M300.522,478.609h-66.783V333.913h66.783V478.609z M478.609,300.522h-244.87    v-66.783c3.625,0,240.356,0,244.87,0V300.522z M478.609,200.348c-5.281,0-338.321,0-345.043,0v-66.783    c10.042,0,340.371,0,345.043,0V200.348z M478.609,100.174c-6.516,0-437.093,0-445.217,0V33.391c5.163,0,439.918,0,445.217,0    V100.174z" fill="#FFFFFF"/>
	</g>
</g>
<g>
</g>
<g>
</g>
<g>
</g>
<g>
</g>
<g>
</g>
<g>
</g>
<g>
</g>
<g>
</g>
<g>
</g>
<g>
</g>
<g>
</g>
<g>
</g>
<g>
</g>
<g>
</g>
<g>
</g>
</svg>
