<?xml version="1.0" encoding="iso-8859-1"?>
<!-- Generator: Adobe Illustrator 19.0.0, SVG Export Plug-In . SVG Version: 6.00 Build 0)  -->
<svg xmlns="http://www.w3.org/2000/svg" xmlns:xlink="http://www.w3.org/1999/xlink" version="1.1" id="Layer_1" x="0px" y="0px" viewBox="0 0 512 512" style="enable-background:new 0 0 512 512;" xml:space="preserve" width="512px" height="512px">
<g>
	<g>
		<path d="M419.154,15.791c-33.278,0-60.352,27.074-60.352,60.352c0,33.278,27.073,60.352,60.352,60.352    c33.278,0,60.352-27.074,60.352-60.352C479.507,42.865,452.432,15.791,419.154,15.791z M419.154,116.78    c-22.406,0-40.636-18.23-40.636-40.636c0-22.406,18.229-40.636,40.636-40.636c22.406,0,40.636,18.23,40.636,40.636    C459.791,98.55,441.561,116.78,419.154,116.78z" fill="#fc8215"/>
	</g>
</g>
<g>
	<g>
		<path d="M502.142,428.267h-21.436l-63.156-110.22l8.287,0.029c28.796,0,52.225-21.387,52.225-47.675s-23.428-47.675-52.225-47.675    h-4.189c5.749-7.7,9.04-16.993,9.04-26.922c0-26.289-23.428-47.675-52.225-47.675h-58.276l-45.355-79.154l26.098-26.098    c3.85-3.85,3.85-10.092,0-13.942s-10.092-3.85-13.942,0l-25.893,25.893l-25.894-25.893c-3.85-3.85-10.092-3.85-13.941,0    c-3.85,3.85-3.85,10.092,0,13.941l26.098,26.097l-45.355,79.155H52.225C23.428,148.129,0,169.516,0,195.804    s23.428,47.675,52.225,47.675h45.131c-5.749,7.7-9.04,16.993-9.04,26.922c0,10.27,3.602,19.993,9.919,27.958H70.367    c-28.797,0-52.225,21.386-52.225,47.675c0,23.576,18.847,43.197,43.533,46.998l-20.189,35.234H15.825    c-5.445,0-9.858,4.413-9.858,9.858v48.226c0,5.445,4.413,9.858,9.858,9.858h486.317c5.445,0,9.858-4.413,9.858-9.858v-48.226    C512,432.68,507.587,428.267,502.142,428.267z M378.464,167.845L378.464,167.845c17.926,0,32.509,12.542,32.509,27.959    c0,12.886-10.164,24.046-24.717,27.137c-4.936,1.048-8.283,5.655-7.756,10.672c0.527,5.019,4.758,8.829,9.804,8.829h37.534    c17.926,0,32.509,12.542,32.509,27.959c0,15.417-14.583,27.959-32.474,27.959l-19.641-0.069l-74.744-130.445H378.464z     M270.954,101.863l187.027,326.404H332.746L295.06,307.975l-24.106-76.945V101.863z M261.096,265.511l50.989,162.755H210.107    l45.687-145.833L261.096,265.511z M216.272,162.889c0.001-0.001,0.001-0.002,0.001-0.003l34.966-61.023v129.166l-24.106,76.945    l-37.687,120.291H64.211l67.819-118.357l0.001-0.001L216.272,162.889z M52.225,223.763L52.225,223.763    c-17.926,0-32.509-12.542-32.509-27.958c0-15.417,14.583-27.959,32.509-27.959h138.482l-71.028,123.96    c-7.258-5.245-11.646-13.055-11.646-21.404c0-12.886,10.164-24.046,24.716-27.137c4.936-1.048,8.283-5.655,7.756-10.672    c-0.527-5.019-4.758-8.829-9.804-8.829H52.225z M37.859,346.034c0-15.416,14.583-27.959,32.509-27.959h34.258l-32.035,55.908    l-2.223,0.009C52.442,373.993,37.859,361.451,37.859,346.034z M492.284,476.493H25.685v-28.51h21.515h149.487h128.817h149.487    h17.292V476.493z" fill="#fc8215"/>
	</g>
</g>
<g>
	<g>
		<path d="M377.579,327.115L310.817,204.8c-2.608-4.779-8.598-6.538-13.376-3.93c-4.779,2.608-6.539,8.597-3.93,13.376    l66.762,122.315c1.79,3.28,5.172,5.137,8.662,5.137c1.596,0,3.215-0.388,4.714-1.207    C378.428,337.883,380.187,331.893,377.579,327.115z" fill="#fc8215"/>
	</g>
</g>
<g>
	<g>
		<path d="M393.323,356.828c-1.834-1.834-4.377-2.888-6.97-2.888c-2.593,0-5.136,1.055-6.97,2.888    c-1.834,1.834-2.888,4.377-2.888,6.97c0,2.593,1.055,5.136,2.888,6.97c1.834,1.843,4.377,2.888,6.97,2.888    c2.593,0,5.136-1.045,6.97-2.888c1.843-1.834,2.888-4.367,2.888-6.97C396.212,361.205,395.167,358.662,393.323,356.828z" fill="#fc8215"/>
	</g>
</g>
<g>
	<g>
		<path d="M205.955,232.832c-4.779-2.608-10.767-0.849-13.376,3.93l-66.762,122.315c-2.608,4.779-0.849,10.768,3.93,13.376    c1.499,0.818,3.118,1.207,4.714,1.207c3.49,0,6.872-1.858,8.662-5.137l66.762-122.315    C212.494,241.429,210.735,235.44,205.955,232.832z" fill="#fc8215"/>
	</g>
</g>
<g>
	<g>
		<path d="M225.637,202.549c-1.834-1.834-4.377-2.888-6.97-2.888c-2.603,0-5.136,1.055-6.97,2.888    c-1.843,1.834-2.888,4.377-2.888,6.97c0,2.603,1.045,5.136,2.888,6.97c1.834,1.843,4.367,2.888,6.97,2.888    c2.593,0,5.136-1.045,6.97-2.888c1.834-1.834,2.888-4.367,2.888-6.97C228.526,206.926,227.471,204.383,225.637,202.549z" fill="#fc8215"/>
	</g>
</g>
<g>
</g>
<g>
</g>
<g>
</g>
<g>
</g>
<g>
</g>
<g>
</g>
<g>
</g>
<g>
</g>
<g>
</g>
<g>
</g>
<g>
</g>
<g>
</g>
<g>
</g>
<g>
</g>
<g>
</g>
</svg>
